<?xml version="1.0" encoding="utf-8"?>
<!-- Generator: Adobe Illustrator 28.3.0, SVG Export Plug-In . SVG Version: 6.00 Build 0)  -->
<svg version="1.1" id="Layer_1" xmlns="http://www.w3.org/2000/svg" xmlns:xlink="http://www.w3.org/1999/xlink" x="0px" y="0px"
	 viewBox="0 0 1080 1080" style="enable-background:new 0 0 1080 1080;" xml:space="preserve">
<style type="text/css">
	.st0{clip-path:url(#SVGID_00000142880665220694104760000009594907592902667945_);}
</style>
<g>
	<path d="M670.9,619.5c-46.6,56.6-46.6,104.9-46.6,104.9v32.8h-169v-32.8c0,0,0-48.3-46.6-104.9c0,0-57.7-67.4-25.2-154.7
		c31.7-85,105.7-111.8,152.5-111.8c1.3,0,2.5,0,3.8,0.1c1.2,0,2.5-0.1,3.8-0.1c46.8,0,120.8,26.8,152.5,111.8
		C728.6,552.1,670.9,619.5,670.9,619.5z M736.6,527.2c1.1-24.7-2.8-49.4-11.7-73.2c-8.7-23.4-20.8-44.4-35.9-62.4
		c-13.6-16.2-29.5-30-47.5-40.9c-15.8-9.7-32.9-17.1-50.7-22c-15.8-4.3-32.1-6.6-47.2-6.6c-1.3,0-2.5,0-3.8,0.1
		c-1.2,0-2.5-0.1-3.8-0.1c-15.1,0-31.5,2.3-47.2,6.6c-17.9,4.9-34.9,12.3-50.7,22c-18,11-33.9,24.8-47.5,40.9
		c-15.1,18-27.2,39-35.9,62.4c-8.9,23.8-12.8,48.4-11.7,73.2c0.9,19.7,4.9,39.4,12.1,58.5c11.5,30.8,27.2,50.3,30,53.6
		c20.8,25.3,30.5,48.2,35,62.9c4.1,13.4,4.5,22.2,4.5,22.2v41.5c0,12.2,9.9,22.1,22.1,22.1H633c12.2,0,22.1-9.9,22.1-22.1v-41.2
		c0.1-1.1,0.6-10.6,5.3-25.2c4.6-14.2,14.3-36.1,34.1-60.3c2.8-3.3,18.5-22.8,30-53.6C731.7,566.5,735.8,546.8,736.6,527.2"/>
	<path d="M536.8,392.3c-0.6-9-8.8-15.4-17.7-14c-41.2,6.9-66.7,27.6-81.3,44.8c-7.8,9.2-13.3,18.3-17,25.7c-4.3,8.6,0.3,19,9.6,21.5
		l0.4,0.1c6.9,1.9,14.2-1.4,17.5-7.8c8.3-16.5,29.3-46,75.8-53.8c7.7-1.3,13.3-8.2,12.7-16L536.8,392.3"/>
	<path d="M626.1,802.4H452.4c-8.2,0-14.9,6.9-14.9,15.4c0,8.5,6.7,15.4,14.9,15.4h173.7c8.2,0,14.9-6.9,14.9-15.4
		C641,809.3,634.3,802.4,626.1,802.4"/>
	<path d="M626.1,847.7H452.4c-8.2,0-14.9,6.9-14.9,15.4c0,8.5,6.7,15.4,14.9,15.4h173.7c8.2,0,14.9-6.9,14.9-15.4
		C641,854.6,634.3,847.7,626.1,847.7"/>
	<g>
		<defs>
			<rect id="SVGID_1_" x="454.7" y="892" width="168" height="52.6"/>
		</defs>
		<clipPath id="SVGID_00000109001798928129440900000013689396070804613781_">
			<use xlink:href="#SVGID_1_"  style="overflow:visible;"/>
		</clipPath>
		<g style="clip-path:url(#SVGID_00000109001798928129440900000013689396070804613781_);">
			<path d="M617.5,893H461.1c-4.6,0-6.9,5.5-3.6,8.8l25.9,25.9c7.6,7.6,17.3,12.6,27.9,14.3c7.2,1.1,16.6,2.1,28,2.1
				c11.4,0,20.8-0.9,28-2.1c10.6-1.7,20.3-6.7,27.9-14.3l25.9-25.9C624.4,898.5,622.1,893,617.5,893"/>
		</g>
	</g>
</g>
</svg>
