<?xml version="1.0" encoding="utf-8"?>
<!-- Generator: Adobe Illustrator 28.3.0, SVG Export Plug-In . SVG Version: 6.00 Build 0)  -->
<svg version="1.1" id="Layer_1" xmlns="http://www.w3.org/2000/svg" xmlns:xlink="http://www.w3.org/1999/xlink" x="0px" y="0px"
	 viewBox="0 0 88.6 55.4" style="enable-background:new 0 0 88.6 55.4;" xml:space="preserve">
<style type="text/css">
	.st0{fill:#EFEDE6;}
	.st1{clip-path:url(#SVGID_00000122703455976587644250000014856138640650838402_);}
	.st2{clip-path:url(#SVGID_00000114770223459609905510000012655644681419591050_);}
</style>
<g>
	<g>
		<g transform="translate(52.12603, 266.847721)">
			<g>
				<path class="st0" d="M-36.7-215.7c-7.5,0-11.2-4.1-11.2-12.4l0-3.3h9l0.1,4.8c0,1,0.2,1.7,0.5,2.2c0.3,0.5,0.9,0.8,1.7,0.8
					c1.2,0,1.8-1.1,1.8-3.2c0-1.6-0.3-2.8-0.8-3.7s-1.5-1.9-2.7-2.9l-4.8-4.1c-1.7-1.4-2.8-2.8-3.6-4.3c-0.7-1.5-1.1-3.6-1.1-6.3
					c0-2.1,0.5-3.9,1.5-5.4s2.4-2.6,4-3.3c1.7-0.8,3.6-1.1,5.6-1.1c7.3,0,11,4,11,11.9v0.8h-9.3v-1.6c0-1-0.2-1.8-0.4-2.5
					c-0.3-0.7-0.8-1-1.5-1c-0.6,0-1.1,0.2-1.4,0.6c-0.3,0.4-0.5,0.9-0.5,1.6c0,1.5,0.5,2.7,1.6,3.5l5.6,4.4c2,1.6,3.5,3.4,4.6,5.3
					c1.1,1.9,1.6,4.3,1.6,7.2c0,3.8-1,6.8-3,8.8S-33.1-215.7-36.7-215.7z"/>
			</g>
		</g>
	</g>
	<g>
		<g transform="translate(136.597473, 266.847721)">
			<g>
				<path class="st0" d="M-103-215.7c-2.9,0-4.9-1.1-6-3.2c-1.1-2.1-1.6-5.1-1.6-9.1c0-3.2,0.4-5.7,1.2-7.4c0.8-1.7,1.8-3,3.2-3.8
					c1.4-0.8,3.5-1.7,6.3-2.7l2.5-0.9v-4.2c0-1.1-0.2-1.9-0.6-2.5c-0.4-0.6-0.9-0.9-1.4-0.9c-0.5,0-0.9,0.3-1.3,0.7
					c-0.4,0.5-0.5,1.2-0.5,2v2.5h-8.8v-1.3c0-4.1,0.9-6.9,2.6-8.7c1.7-1.7,4.6-2.6,8.5-2.6c3.1,0,5.7,0.9,7.6,2.7
					c2,1.8,2.9,4.3,2.9,7.6v31.4h-9v-4.9c-0.4,1.7-1.2,3-2.1,3.9C-100.5-216.1-101.6-215.7-103-215.7z M-99.4-223.3
					c0.7,0,1.2-0.3,1.5-0.9c0.3-0.6,0.4-1.4,0.4-2.3V-238c-1.3,0.6-2.3,1.3-3,2.1c-0.6,0.9-1,2.1-1,3.6v5.3
					C-101.4-224.5-100.8-223.3-99.4-223.3z"/>
			</g>
		</g>
	</g>
	<g>
		<g transform="translate(222.677919, 266.847721)">
			<g>
				<path class="st0" d="M-173.9-216.1v-48.6h9.2v48.6H-173.9z"/>
			</g>
		</g>
	</g>
	<g>
		<g transform="translate(261.494115, 266.847721)">
			<g>
				<path class="st0" d="M-194.9-215.7c-2.4,0-4-0.5-4.9-1.6c-0.9-1.1-1.3-2.8-1.3-5.2v-25.7h-2.5v-7.5h2.5v-8.7h8.8v8.7h2.6v7.5
					h-2.6v23.1c0,0.7,0.1,1.2,0.2,1.6c0.1,0.3,0.4,0.5,0.8,0.5c0.3,0,0.7,0,1-0.1c0.3,0,0.5-0.1,0.6-0.1v6.8
					c-0.5,0.1-1.3,0.3-2.3,0.5C-193-215.7-194-215.7-194.9-215.7z"/>
			</g>
		</g>
	</g>
	<g>
		<g>
			<defs>
				<rect id="SVGID_1_" x="73.5" y="40.4" width="10.8" height="11.7"/>
			</defs>
			<use xlink:href="#SVGID_1_"  style="overflow:visible;fill:#EFEDE6;"/>
			<clipPath id="SVGID_00000128451235556527409380000009277592680840174480_">
				<use xlink:href="#SVGID_1_"  style="overflow:visible;"/>
			</clipPath>
			<g style="clip-path:url(#SVGID_00000128451235556527409380000009277592680840174480_);">
				<g>
					<g>
						<defs>
							<ellipse id="SVGID_00000042722024096907578130000014682284385174447806_" cx="78.9" cy="46.2" rx="5.4" ry="5.9"/>
						</defs>
						<use xlink:href="#SVGID_00000042722024096907578130000014682284385174447806_"  style="overflow:visible;fill:#EFEDE6;"/>
						<clipPath id="SVGID_00000031898122234096653380000007237053086902684307_">
							<use xlink:href="#SVGID_00000042722024096907578130000014682284385174447806_"  style="overflow:visible;"/>
						</clipPath>
						<g style="clip-path:url(#SVGID_00000031898122234096653380000007237053086902684307_);">
							<path class="st0" d="M73.5,40.4h10.8v11.7H73.5V40.4z"/>
						</g>
					</g>
				</g>
			</g>
		</g>
	</g>
</g>
</svg>
