<?xml version="1.0" encoding="utf-8"?>
<!-- Generator: Adobe Illustrator 28.3.0, SVG Export Plug-In . SVG Version: 6.00 Build 0)  -->
<svg version="1.1" id="Layer_1" xmlns="http://www.w3.org/2000/svg" xmlns:xlink="http://www.w3.org/1999/xlink" x="0px" y="0px"
	 viewBox="0 0 257 380" style="enable-background:new 0 0 257 380;" xml:space="preserve">
<style type="text/css">
	.st0{clip-path:url(#SVGID_00000085941335724514129640000016820400475562606213_);}
	.st1{clip-path:url(#SVGID_00000182489234037557805880000016814737013391078791_);}
	.st2{fill:#EFEDE6;}
</style>
<g>
	<defs>
		<rect id="SVGID_1_" x="176.8" y="244.6" width="59.4" height="59.4"/>
	</defs>
	<use xlink:href="#SVGID_1_"  style="overflow:visible;fill:#EFEDE6;"/>
	<clipPath id="SVGID_00000111192770557768196770000006379684899602603400_">
		<use xlink:href="#SVGID_1_"  style="overflow:visible;"/>
	</clipPath>
	<g style="clip-path:url(#SVGID_00000111192770557768196770000006379684899602603400_);">
		<g>
			<defs>
				<path id="SVGID_00000145751018641117160880000010207606853255819437_" d="M206.5,244.6c-16.4,0-29.7,13.3-29.7,29.7
					c0,16.4,13.3,29.7,29.7,29.7s29.7-13.3,29.7-29.7C236.2,257.9,222.9,244.6,206.5,244.6z"/>
			</defs>
			<use xlink:href="#SVGID_00000145751018641117160880000010207606853255819437_"  style="overflow:visible;fill:#EFEDE6;"/>
			<clipPath id="SVGID_00000102525328131632557420000003745863629821686661_">
				<use xlink:href="#SVGID_00000145751018641117160880000010207606853255819437_"  style="overflow:visible;"/>
			</clipPath>
			<g style="clip-path:url(#SVGID_00000102525328131632557420000003745863629821686661_);">
				<path class="st2" d="M176.8,244.6h59.4V304h-59.4V244.6z"/>
			</g>
		</g>
	</g>
</g>
<g>
	<g transform="translate(24.796588, 216.84919)">
		<g>
			<path class="st2" d="M83.1,74.8c-45.9,0-68.8-23.3-68.8-69.8l0.3-18.4h55.5l0.3,27.3c0,5.5,1.1,9.7,3.2,12.5
				c2.1,2.8,5.6,4.3,10.5,4.3c7.4,0,11.1-6,11.1-18.1c0-8.9-1.8-15.8-5.2-20.9c-3.5-5.1-9-10.5-16.6-16.2L43.8-47.3
				c-10.2-7.8-17.5-15.9-21.9-24.2c-4.4-8.4-6.6-20.2-6.6-35.4c0-11.8,3.1-21.9,9.4-30.3c6.2-8.4,14.5-14.7,24.9-18.9
				c10.4-4.2,21.9-6.4,34.6-6.4c45,0,67.5,22.4,67.5,67.2v4.4H94.2v-8.9c0-5.5-0.9-10.2-2.7-14.1c-1.8-3.9-4.8-5.9-9-5.9
				c-3.8,0-6.7,1.1-8.7,3.3c-2,2.2-3,5.2-3,9c0,8.5,3.3,15,9.8,19.7l34.2,25c12.3,9.1,21.7,19,28.2,29.7c6.6,10.7,9.8,24.1,9.8,40.4
				c0,21.6-6.1,38.2-18.4,49.8C122.2,69,105.1,74.8,83.1,74.8z"/>
		</g>
	</g>
</g>
</svg>
